Coordinates
version=1
nRows=13
nColumns=40
inDegrees=yes

Units are S.I. units (second, meters, Newtons, ...)
Angles are in degrees.

endheader
time	pelvis_tilt	pelvis_list	pelvis_rotation	pelvis_tx	pelvis_ty	pelvis_tz	hip_flexion_r	hip_adduction_r	hip_rotation_r	knee_angle_r	knee_angle_r_beta	ankle_angle_r	subtalar_angle_r	mtp_angle_r	hip_flexion_l	hip_adduction_l	hip_rotation_l	knee_angle_l	knee_angle_l_beta	ankle_angle_l	subtalar_angle_l	mtp_angle_l	lumbar_extension	lumbar_bending	lumbar_rotation	arm_flex_r	arm_add_r	arm_rot_r	elbow_flex_r	pro_sup_r	wrist_flex_r	wrist_dev_r	arm_flex_l	arm_add_l	arm_rot_l	elbow_flex_l	pro_sup_l	wrist_flex_l	wrist_dev_l
      5.80500000	     -9.07151067	     -4.69851837	    -14.88144677	      0.96115215	      0.92353506	      0.36081956	     25.23272982	     -2.81681108	     -3.24194398	     18.09034346	     18.09034346	      4.78700482	      8.50580135	     -0.70905217	     14.62942027	     -4.42116529	    -14.62645810	     23.32086369	     23.32086369	     19.30644870	    -16.75741482	      6.89854616	    -11.13489012	      8.38874673	      0.95187644	    -22.71208701	    -10.77721096	    -13.75111669	     29.56371562	     46.24622439	      0.00000000	      0.00000000	     46.78389033	    -28.77111040	     -2.09624718	     59.45644134	     47.37823911	      0.00000000	      0.00000000
      5.82835714	     -9.15486769	     -4.35415169	    -15.52232057	      0.95984526	      0.92282071	      0.36430930	     24.76923291	     -2.61976290	     -3.96122167	     15.33777955	     15.33777955	      5.79142086	     11.72388498	      5.60282782	     14.26139715	     -4.33364629	    -15.34876576	     23.02944415	     23.02944415	     19.10494466	    -16.78671261	      5.75079791	    -10.98870656	      8.08741941	      0.95963820	    -22.97876423	    -10.91158556	    -12.92536031	     30.82125989	     46.12732589	      0.00000000	      0.00000000	     47.40895076	    -28.84872226	     -2.99451926	     59.83998446	     47.47364802	      0.00000000	      0.00000000
      5.85171429	     -9.26461239	     -4.04410517	    -16.00812643	      0.95880071	      0.92189858	      0.36810325	     24.27328055	     -2.27450417	     -4.00239718	     12.92494019	     12.92494019	      5.02934690	     13.10413573	      6.59008571	     14.04285735	     -4.29113844	    -15.82074185	     22.99621376	     22.99621376	     19.30935772	    -16.83814938	      5.64546421	    -10.72245979	      7.81489304	      0.96909742	    -22.62011656	    -10.76283713	    -12.78511324	     30.99484433	     46.11267252	      0.00000000	      0.00000000	     47.89734681	    -28.96742114	     -3.08913433	     59.95729417	     47.48869606	      0.00000000	      0.00000000
      5.87507143	     -9.29335893	     -3.79914309	    -16.36380785	      0.95804247	      0.92112495	      0.37198455	     23.86327659	     -1.99974102	     -4.09854150	     11.40696714	     11.40696714	      4.50415398	     14.24088276	      7.23753315	     13.75778065	     -4.28772713	    -16.17641046	     23.03867433	     23.03867433	     19.52798307	    -16.86574851	      5.52075130	    -10.58476780	      7.64451584	      1.00122536	    -22.17672043	    -10.70507245	    -12.61700205	     31.15686760	     46.09768695	      0.00000000	      0.00000000	     48.27363711	    -29.00385620	     -3.26127761	     59.98120418	     47.50748009	      0.00000000	      0.00000000
      5.89842857	     -9.35814072	     -3.54130904	    -16.60242381	      0.95742572	      0.92030517	      0.37599160	     23.82952973	     -1.81261501	     -3.97993187	     10.98374492	     10.98374492	      4.30273647	     14.61806829	      7.31969068	     13.55435561	     -4.26949082	    -16.38658486	     23.13220847	     23.13220847	     19.71575942	    -16.97454000	      5.45032797	    -10.38364028	      7.48658220	      1.06437735	    -21.63612973	    -10.64756240	    -12.53442494	     31.33879078	     46.08862825	      0.00000000	      0.00000000	     48.48155075	    -28.93949014	     -3.32536985	     60.00095084	     47.51509608	      0.00000000	      0.00000000
      5.92178571	     -9.40786753	     -3.37465469	    -16.60717315	      0.95728057	      0.91976353	      0.37999498	     23.73592143	     -1.66968830	     -3.97064964	     10.97350187	     10.97350187	      4.28763669	     14.66200994	      7.29562463	     13.28959174	     -4.29535467	    -16.36609841	     23.17705306	     23.17705306	     19.84620292	    -17.01762165	      5.40840905	    -10.14424904	      7.51018595	      1.10884617	    -21.44815220	    -10.63678936	    -12.51729867	     31.40188356	     46.08630637	      0.00000000	      0.00000000	     48.51242777	    -28.90211337	     -3.33036842	     60.00865655	     47.51595763	      0.00000000	      0.00000000
      5.94514286	     -9.32065442	     -3.31725887	    -16.53580235	      0.95741687	      0.91955680	      0.38433807	     23.17968276	     -1.43029917	     -3.71449755	     10.59131216	     10.59131216	      2.69258755	     14.31332891	      2.07455623	     12.81613020	     -4.42054344	    -16.38007237	     23.20928792	     23.20928792	     20.20428160	    -16.81623210	      5.76380969	    -10.06799482	      7.51609022	      0.86644004	    -20.30351344	    -10.87066716	    -11.13381932	     30.74146299	     46.03309585	      0.00000000	      0.00000000	     48.67380461	    -28.22380066	     -4.89249519	     58.88356471	     47.62832645	      0.00000000	      0.00000000
      5.96850000	     -9.25735995	     -3.25528098	    -16.33771222	      0.95773744	      0.91947782	      0.38879704	     22.98887448	     -1.28090169	     -3.41192326	     11.12157673	     11.12157673	      2.24539568	     13.35681152	     -0.76419828	     12.33705258	     -4.51272096	    -16.22005299	     23.14313951	     23.14313951	     20.34095179	    -16.77551991	      5.84564034	    -10.01421215	      7.53437055	      0.81403715	    -19.91573530	    -11.05222521	    -10.34767722	     31.01965078	     45.97659517	      0.00000000	      0.00000000	     48.40094912	    -28.18970327	     -4.59354962	     59.18563998	     47.61293390	      0.00000000	      0.00000000
      5.99185714	     -9.21421515	     -3.20647315	    -16.04529192	      0.95822029	      0.91962714	      0.39342584	     22.96099248	     -1.18206088	     -3.23467668	     12.11181275	     12.11181275	      2.72760264	     12.50069732	     -1.53834264	     11.81219841	     -4.61902665	    -16.03306518	     22.94085348	     22.94085348	     20.35984645	    -16.64787638	      5.89584624	     -9.90996316	      7.56195518	      0.75397421	    -19.50349886	    -11.18915032	    -10.21904363	     31.11498179	     45.96912082	      0.00000000	      0.00000000	     48.17777036	    -27.94723923	     -4.57256244	     58.93728187	     47.60699626	      0.00000000	      0.00000000
      6.01521429	     -9.19484072	     -3.31015983	    -15.59576820	      0.95892055	      0.92006184	      0.39819749	     22.63779779	     -0.97860756	     -3.39617775	     12.67667841	     12.67667841	      3.17611170	     11.98180481	     -1.89530185	     11.29285022	     -4.89755774	    -15.69604626	     22.76288201	     22.76288201	     20.35131735	    -16.46379552	      5.93938847	     -9.78943234	      7.75662676	      0.68066749	    -19.16550653	    -11.34894875	    -10.20202867	     31.21264689	     45.96732760	      0.00000000	      0.00000000	     47.82843504	    -27.54992034	     -4.44687099	     58.79996685	     47.59232632	      0.00000000	      0.00000000
      6.03857143	     -9.07875918	     -3.25997208	    -15.19634176	      0.95964668	      0.92048940	      0.40343416	     22.52721583	     -0.77244516	     -2.53303772	     13.67420047	     13.67420047	      3.22205641	      9.67736732	     -4.19074961	     10.56701796	     -5.01381201	    -15.56748257	     22.32596600	     22.32596600	     20.12741967	    -16.19458331	      5.63830786	     -9.72221669	      7.65618442	      0.66028588	    -18.94090390	    -11.67274812	     -9.26709605	     31.04416022	     45.92424141	      0.00000000	      0.00000000	     47.78294691	    -27.24477876	     -4.28681835	     57.88516894	     47.57386159	      0.00000000	      0.00000000
      6.06192857	     -9.04272158	     -3.38451710	    -14.63813456	      0.96041700	      0.92111160	      0.40869743	     22.24774006	     -0.53486768	     -2.73025754	     14.35435666	     14.35435666	      3.75948519	      8.96557021	     -4.40303502	      9.99247628	     -5.35171497	    -15.18578459	     22.05542058	     22.05542058	     20.04164933	    -15.91528874	      5.69392309	     -9.68729570	      7.76377601	      0.59775246	    -18.73995649	    -11.87481647	     -9.26909135	     31.14407846	     45.92298236	      0.00000000	      0.00000000	     47.40785992	    -26.99954836	     -4.17747353	     57.72738144	     47.56000323	      0.00000000	      0.00000000
      6.08528571	     -8.98805765	     -3.46446616	    -14.07674281	      0.96122619	      0.92178203	      0.41420225	     21.98493452	     -0.28735720	     -2.72119872	     15.04287946	     15.04287946	      4.37172468	      7.94076275	     -4.50696499	      9.35743867	     -5.66291341	    -14.89050067	     21.68206356	     21.68206356	     19.89228169	    -15.54025860	      5.72195701	     -9.63361819	      7.75811638	      0.49704154	    -18.59502698	    -12.11062413	     -9.26040493	     31.24492293	     45.92068774	      0.00000000	      0.00000000	     46.96870589	    -26.76287940	     -4.03494751	     57.47459269	     47.54167991	      0.00000000	      0.00000000
